<svg width="512" height="512" viewBox="0 0 512 512" fill="none" xmlns="http://www.w3.org/2000/svg">
  <defs>
    <linearGradient id="igp-bg" x1="64" y1="48" x2="448" y2="464" gradientUnits="userSpaceOnUse">
      <stop offset="0" stop-color="#60A5FA" />
      <stop offset="0.5" stop-color="#A855F7" />
      <stop offset="1" stop-color="#F472B6" />
    </linearGradient>
    <linearGradient id="igp-cell" x1="0" y1="0" x2="1" y2="1">
      <stop offset="0" stop-color="#FFFFFF" stop-opacity="0.95" />
      <stop offset="1" stop-color="#F9FAFB" stop-opacity="0.75" />
    </linearGradient>
    <filter id="innerShadow" x="0" y="0" width="512" height="512" filterUnits="userSpaceOnUse" color-interpolation-filters="sRGB">
      <feDropShadow dx="0" dy="18" stdDeviation="28" flood-color="rgba(15,23,42,0.25)" />
    </filter>
  </defs>
  <rect x="64" y="56" width="384" height="384" rx="104" fill="url(#igp-bg)" filter="url(#innerShadow)" />
  <g transform="translate(128 120)">
    <rect x="0" y="0" width="256" height="256" rx="60" stroke="rgba(255,255,255,0.78)" stroke-width="5" fill="none" />
    <g stroke="rgba(255,255,255,0.78)" stroke-width="4" stroke-linecap="round" opacity="0.85">
      <line x1="28" y1="92" x2="228" y2="92" />
      <line x1="28" y1="164" x2="228" y2="164" />
      <line x1="92" y1="28" x2="92" y2="228" />
      <line x1="164" y1="28" x2="164" y2="228" />
    </g>
    <rect x="26" y="26" width="60" height="60" rx="18" fill="url(#igp-cell)" />
    <rect x="98" y="26" width="60" height="60" rx="18" fill="url(#igp-cell)" />
    <rect x="170" y="26" width="60" height="60" rx="18" fill="url(#igp-cell)" />
    <rect x="26" y="98" width="60" height="60" rx="18" fill="rgba(255,255,255,0.9)" />
    <rect x="98" y="98" width="60" height="60" rx="18" fill="rgba(255,255,255,0.72)" />
    <rect x="170" y="98" width="60" height="60" rx="18" fill="rgba(255,255,255,0.8)" />
    <rect x="26" y="170" width="60" height="60" rx="18" fill="rgba(255,255,255,0.76)" />
    <rect x="98" y="170" width="60" height="60" rx="18" fill="rgba(255,255,255,0.86)" />
    <rect x="170" y="170" width="60" height="60" rx="18" fill="rgba(255,255,255,0.94)" />
  </g>
</svg>
